<svg width="14" height="14" viewBox="0 0 14 14" fill="none" xmlns="http://www.w3.org/2000/svg">
<path d="M5.43921 0.752075C6.6907 0.752075 7.8693 1.23927 8.75366 2.12512C9.63803 3.01105 10.1267 4.18646 10.1267 5.43958C10.1267 6.48643 9.78664 7.48197 9.15698 8.29602L13.2146 12.3536C13.2265 12.3655 13.2355 12.3801 13.2419 12.3956C13.2483 12.4111 13.2517 12.4277 13.2517 12.4445C13.2517 12.4612 13.2484 12.4778 13.2419 12.4933C13.2355 12.5088 13.2265 12.5234 13.2146 12.5353L12.533 13.215C12.5212 13.2267 12.5072 13.2359 12.4919 13.2423C12.4764 13.2488 12.459 13.2521 12.4421 13.2521C12.4255 13.252 12.4087 13.2487 12.3933 13.2423C12.378 13.2359 12.3641 13.2267 12.3523 13.215L8.2937 9.15833C7.47969 9.78632 6.48597 10.1271 5.43921 10.1271C4.18634 10.127 3.01001 9.63969 2.12573 8.75403C1.24136 7.86965 0.751709 6.69114 0.751709 5.43958C0.751715 4.18646 1.2398 3.00949 2.12573 2.12512C3.01 1.24104 4.18792 0.752143 5.43921 0.752075ZM5.43921 1.93958C4.50493 1.93964 3.62704 2.30409 2.9646 2.96497C2.30374 3.62588 1.93922 4.50526 1.93921 5.43958C1.93921 6.37388 2.30375 7.2517 2.9646 7.91418C3.62704 8.57506 4.50493 8.93951 5.43921 8.93958C6.37358 8.93958 7.25229 8.57512 7.91479 7.91418C8.5755 7.25329 8.93921 6.37378 8.93921 5.43958C8.9392 4.50537 8.57551 3.62742 7.91479 2.96497C7.25386 2.30247 6.37358 1.93958 5.43921 1.93958Z" fill="black" fill-opacity="0.85"/>
</svg>
